<mxfile host="app.diagrams.net" modified="2023-04-06T15:48:22.041Z" agent="5.0 (X11; Linux x86_64) AppleWebKit/537.36 (KHTML, like Gecko) Chrome/111.0.0.0 Safari/537.36" etag="TdyvjvusbQhFn0aZnK_q" version="21.0.2" type="github" pages="6">
  <diagram id="GJlDIFFBztXIJ6X1yWX1" name="CV">
    <mxGraphModel dx="1368" dy="800" grid="1" gridSize="10" guides="1" tooltips="1" connect="1" arrows="1" fold="1" page="1" pageScale="1" pageWidth="1169" pageHeight="1654" math="0" shadow="0">
      <root>
        <mxCell id="0" />
        <mxCell id="1" parent="0" />
        <mxCell id="pWsAfaCwAZYPmIS7DpK5-1" style="edgeStyle=orthogonalEdgeStyle;rounded=0;orthogonalLoop=1;jettySize=auto;html=1;entryX=0;entryY=0.5;entryDx=0;entryDy=0;sketch=1;curveFitting=1;jiggle=2;" parent="1" source="pWsAfaCwAZYPmIS7DpK5-2" target="pWsAfaCwAZYPmIS7DpK5-5" edge="1">
          <mxGeometry relative="1" as="geometry" />
        </mxCell>
        <mxCell id="pWsAfaCwAZYPmIS7DpK5-2" value="&lt;font face=&quot;Comic Sans MS&quot; style=&quot;font-size: 16px;&quot;&gt;&lt;b&gt;BN&lt;/b&gt;&lt;/font&gt;" style="rounded=1;whiteSpace=wrap;html=1;fillColor=#d5e8d4;strokeColor=#82b366;strokeWidth=2;sketch=1;curveFitting=1;jiggle=2;" parent="1" vertex="1">
          <mxGeometry x="504" y="610" width="120" height="60" as="geometry" />
        </mxCell>
        <mxCell id="pWsAfaCwAZYPmIS7DpK5-3" style="edgeStyle=orthogonalEdgeStyle;rounded=0;orthogonalLoop=1;jettySize=auto;html=1;entryX=0;entryY=0.5;entryDx=0;entryDy=0;sketch=1;curveFitting=1;jiggle=2;" parent="1" source="pWsAfaCwAZYPmIS7DpK5-4" target="pWsAfaCwAZYPmIS7DpK5-2" edge="1">
          <mxGeometry relative="1" as="geometry" />
        </mxCell>
        <mxCell id="pWsAfaCwAZYPmIS7DpK5-4" value="&lt;font face=&quot;Comic Sans MS&quot; style=&quot;font-size: 16px;&quot;&gt;&lt;b&gt;Conv&lt;/b&gt;&lt;/font&gt;" style="rounded=1;whiteSpace=wrap;html=1;fillColor=#dae8fc;strokeColor=#6c8ebf;strokeWidth=2;sketch=1;curveFitting=1;jiggle=2;" parent="1" vertex="1">
          <mxGeometry x="300" y="610" width="120" height="60" as="geometry" />
        </mxCell>
        <mxCell id="pWsAfaCwAZYPmIS7DpK5-5" value="&lt;font face=&quot;Comic Sans MS&quot; style=&quot;font-size: 16px;&quot;&gt;&lt;b&gt;SiLU&lt;/b&gt;&lt;/font&gt;" style="rounded=1;whiteSpace=wrap;html=1;fillColor=#fff2cc;strokeColor=#d6b656;strokeWidth=2;sketch=1;curveFitting=1;jiggle=2;" parent="1" vertex="1">
          <mxGeometry x="710" y="610" width="120" height="60" as="geometry" />
        </mxCell>
        <mxCell id="pWsAfaCwAZYPmIS7DpK5-6" value="" style="endArrow=classic;html=1;rounded=0;entryX=0;entryY=0.5;entryDx=0;entryDy=0;sketch=1;curveFitting=1;jiggle=2;" parent="1" target="pWsAfaCwAZYPmIS7DpK5-4" edge="1">
          <mxGeometry width="50" height="50" relative="1" as="geometry">
            <mxPoint x="200" y="640" as="sourcePoint" />
            <mxPoint x="140" y="700" as="targetPoint" />
          </mxGeometry>
        </mxCell>
        <mxCell id="pWsAfaCwAZYPmIS7DpK5-7" value="" style="endArrow=classic;html=1;rounded=0;entryX=0;entryY=0.5;entryDx=0;entryDy=0;exitX=1;exitY=0.5;exitDx=0;exitDy=0;sketch=1;curveFitting=1;jiggle=2;" parent="1" source="pWsAfaCwAZYPmIS7DpK5-5" edge="1">
          <mxGeometry width="50" height="50" relative="1" as="geometry">
            <mxPoint x="870" y="639.5" as="sourcePoint" />
            <mxPoint x="930" y="639.5" as="targetPoint" />
          </mxGeometry>
        </mxCell>
      </root>
    </mxGraphModel>
  </diagram>
  <diagram id="zqOWOFFRafE8nAmiYh0t" name="C3">
    <mxGraphModel dx="1967" dy="667" grid="1" gridSize="10" guides="1" tooltips="1" connect="1" arrows="1" fold="1" page="1" pageScale="1" pageWidth="827" pageHeight="1169" math="0" shadow="0">
      <root>
        <mxCell id="0" />
        <mxCell id="1" parent="0" />
        <mxCell id="GB5_odt9OYLkKdADDo2p-11" style="edgeStyle=orthogonalEdgeStyle;rounded=0;orthogonalLoop=1;jettySize=auto;html=1;exitX=1;exitY=0.5;exitDx=0;exitDy=0;entryX=0;entryY=0.5;entryDx=0;entryDy=0;sketch=1;curveFitting=1;jiggle=2;" edge="1" parent="1" source="GB5_odt9OYLkKdADDo2p-1" target="GB5_odt9OYLkKdADDo2p-3">
          <mxGeometry relative="1" as="geometry" />
        </mxCell>
        <mxCell id="GB5_odt9OYLkKdADDo2p-1" value="&lt;font style=&quot;font-size: 16px;&quot;&gt;&lt;b&gt;&lt;font face=&quot;Comic Sans MS&quot;&gt;ConvBNSiLU&lt;br&gt;（Cin, Cin*2）&lt;/font&gt;&lt;br&gt;&lt;/b&gt;&lt;/font&gt;" style="rounded=1;whiteSpace=wrap;html=1;fillColor=#dae8fc;strokeColor=#6c8ebf;strokeWidth=2;sketch=1;curveFitting=1;jiggle=2;" vertex="1" parent="1">
          <mxGeometry x="-20" y="680" width="120" height="60" as="geometry" />
        </mxCell>
        <mxCell id="GB5_odt9OYLkKdADDo2p-12" value="" style="edgeStyle=orthogonalEdgeStyle;rounded=0;orthogonalLoop=1;jettySize=auto;html=1;sketch=1;curveFitting=1;jiggle=2;" edge="1" parent="1" source="GB5_odt9OYLkKdADDo2p-3" target="GB5_odt9OYLkKdADDo2p-4">
          <mxGeometry relative="1" as="geometry" />
        </mxCell>
        <mxCell id="GB5_odt9OYLkKdADDo2p-3" value="&lt;font style=&quot;font-size: 16px;&quot;&gt;&lt;b&gt;&lt;font face=&quot;Comic Sans MS&quot;&gt;BottleNeck&lt;br&gt;(Cin*2, Cin*2)&lt;/font&gt;&lt;br&gt;&lt;/b&gt;&lt;/font&gt;" style="rounded=1;whiteSpace=wrap;html=1;fillColor=#fff2cc;strokeColor=#d6b656;strokeWidth=2;sketch=1;curveFitting=1;jiggle=2;" vertex="1" parent="1">
          <mxGeometry x="160" y="680" width="120" height="60" as="geometry" />
        </mxCell>
        <mxCell id="GB5_odt9OYLkKdADDo2p-13" value="" style="edgeStyle=orthogonalEdgeStyle;rounded=0;orthogonalLoop=1;jettySize=auto;html=1;sketch=1;curveFitting=1;jiggle=2;" edge="1" parent="1" source="GB5_odt9OYLkKdADDo2p-4" target="GB5_odt9OYLkKdADDo2p-5">
          <mxGeometry relative="1" as="geometry" />
        </mxCell>
        <mxCell id="GB5_odt9OYLkKdADDo2p-4" value="&lt;font face=&quot;Comic Sans MS&quot; style=&quot;font-size: 16px;&quot;&gt;concat&lt;/font&gt;" style="ellipse;whiteSpace=wrap;html=1;sketch=1;curveFitting=1;jiggle=2;" vertex="1" parent="1">
          <mxGeometry x="340" y="680" width="60" height="60" as="geometry" />
        </mxCell>
        <mxCell id="GB5_odt9OYLkKdADDo2p-5" value="&lt;font style=&quot;font-size: 16px;&quot;&gt;&lt;b&gt;&lt;font face=&quot;Comic Sans MS&quot;&gt;ConvBNSiLU&lt;br&gt;(Cin*4, Cout)&lt;/font&gt;&lt;br&gt;&lt;/b&gt;&lt;/font&gt;" style="rounded=1;whiteSpace=wrap;html=1;fillColor=#dae8fc;strokeColor=#6c8ebf;strokeWidth=2;sketch=1;curveFitting=1;jiggle=2;" vertex="1" parent="1">
          <mxGeometry x="460" y="680" width="120" height="60" as="geometry" />
        </mxCell>
        <mxCell id="GB5_odt9OYLkKdADDo2p-14" style="edgeStyle=orthogonalEdgeStyle;rounded=0;orthogonalLoop=1;jettySize=auto;html=1;exitX=1;exitY=0.5;exitDx=0;exitDy=0;entryX=0.5;entryY=1;entryDx=0;entryDy=0;sketch=1;curveFitting=1;jiggle=2;" edge="1" parent="1" source="GB5_odt9OYLkKdADDo2p-6" target="GB5_odt9OYLkKdADDo2p-4">
          <mxGeometry relative="1" as="geometry" />
        </mxCell>
        <mxCell id="GB5_odt9OYLkKdADDo2p-6" value="&lt;font style=&quot;font-size: 16px;&quot;&gt;&lt;b&gt;&lt;font face=&quot;Comic Sans MS&quot;&gt;ConvBNSiLU&lt;br&gt;(Cin, Cin*2)&lt;/font&gt;&lt;br&gt;&lt;/b&gt;&lt;/font&gt;" style="rounded=1;whiteSpace=wrap;html=1;fillColor=#dae8fc;strokeColor=#6c8ebf;strokeWidth=2;sketch=1;curveFitting=1;jiggle=2;" vertex="1" parent="1">
          <mxGeometry x="70" y="800" width="120" height="60" as="geometry" />
        </mxCell>
        <mxCell id="GB5_odt9OYLkKdADDo2p-8" value="" style="endArrow=classic;html=1;rounded=0;sketch=1;curveFitting=1;jiggle=2;" edge="1" parent="1">
          <mxGeometry width="50" height="50" relative="1" as="geometry">
            <mxPoint x="-130" y="710" as="sourcePoint" />
            <mxPoint x="-20" y="709.5" as="targetPoint" />
          </mxGeometry>
        </mxCell>
        <mxCell id="GB5_odt9OYLkKdADDo2p-15" value="" style="endArrow=classic;html=1;rounded=0;entryX=0;entryY=0.5;entryDx=0;entryDy=0;sketch=1;curveFitting=1;jiggle=2;" edge="1" parent="1" target="GB5_odt9OYLkKdADDo2p-6">
          <mxGeometry width="50" height="50" relative="1" as="geometry">
            <mxPoint x="-80" y="710" as="sourcePoint" />
            <mxPoint x="50" y="830" as="targetPoint" />
            <Array as="points">
              <mxPoint x="-80" y="830" />
            </Array>
          </mxGeometry>
        </mxCell>
        <mxCell id="GB5_odt9OYLkKdADDo2p-16" value="" style="endArrow=classic;html=1;rounded=0;exitX=1;exitY=0.5;exitDx=0;exitDy=0;sketch=1;curveFitting=1;jiggle=2;" edge="1" parent="1" source="GB5_odt9OYLkKdADDo2p-5">
          <mxGeometry width="50" height="50" relative="1" as="geometry">
            <mxPoint x="610" y="720" as="sourcePoint" />
            <mxPoint x="670" y="710" as="targetPoint" />
          </mxGeometry>
        </mxCell>
      </root>
    </mxGraphModel>
  </diagram>
  <diagram id="h2H4jy3zYkLAOgsGND04" name="BottleNeck">
    <mxGraphModel dx="1368" dy="800" grid="1" gridSize="10" guides="1" tooltips="1" connect="1" arrows="1" fold="1" page="1" pageScale="1" pageWidth="827" pageHeight="1169" math="0" shadow="0">
      <root>
        <mxCell id="0" />
        <mxCell id="1" parent="0" />
        <mxCell id="XK5SsUPaoGhKkD4XjnnI-1" value="" style="edgeStyle=orthogonalEdgeStyle;rounded=0;orthogonalLoop=1;jettySize=auto;html=1;sketch=1;curveFitting=1;jiggle=2;" parent="1" source="XK5SsUPaoGhKkD4XjnnI-2" target="XK5SsUPaoGhKkD4XjnnI-4" edge="1">
          <mxGeometry relative="1" as="geometry" />
        </mxCell>
        <mxCell id="XK5SsUPaoGhKkD4XjnnI-2" value="&lt;font style=&quot;font-size: 16px;&quot;&gt;&lt;b&gt;ConvBNSiLU&lt;br&gt;(Cin, Cin/2)&lt;br&gt;&lt;/b&gt;&lt;/font&gt;" style="rounded=1;whiteSpace=wrap;html=1;fillColor=#dae8fc;strokeColor=#6c8ebf;strokeWidth=2;sketch=1;curveFitting=1;jiggle=2;" parent="1" vertex="1">
          <mxGeometry x="170" y="230" width="120" height="60" as="geometry" />
        </mxCell>
        <mxCell id="XK5SsUPaoGhKkD4XjnnI-3" style="edgeStyle=orthogonalEdgeStyle;rounded=0;orthogonalLoop=1;jettySize=auto;html=1;exitX=1;exitY=0.5;exitDx=0;exitDy=0;sketch=1;curveFitting=1;jiggle=2;" parent="1" source="XK5SsUPaoGhKkD4XjnnI-4" target="XK5SsUPaoGhKkD4XjnnI-6" edge="1">
          <mxGeometry relative="1" as="geometry" />
        </mxCell>
        <mxCell id="XK5SsUPaoGhKkD4XjnnI-4" value="&lt;font style=&quot;font-size: 16px;&quot;&gt;&lt;b&gt;ConvBNSiLU&lt;br&gt;(Cin/2, Cin)&lt;br&gt;&lt;/b&gt;&lt;/font&gt;" style="rounded=1;whiteSpace=wrap;html=1;fillColor=#dae8fc;strokeColor=#6c8ebf;strokeWidth=2;sketch=1;curveFitting=1;jiggle=2;" parent="1" vertex="1">
          <mxGeometry x="350" y="230" width="120" height="60" as="geometry" />
        </mxCell>
        <mxCell id="XK5SsUPaoGhKkD4XjnnI-5" style="edgeStyle=orthogonalEdgeStyle;rounded=0;orthogonalLoop=1;jettySize=auto;html=1;exitX=1;exitY=0.5;exitDx=0;exitDy=0;sketch=1;curveFitting=1;jiggle=2;" parent="1" source="XK5SsUPaoGhKkD4XjnnI-6" edge="1">
          <mxGeometry relative="1" as="geometry">
            <mxPoint x="640" y="260" as="targetPoint" />
          </mxGeometry>
        </mxCell>
        <mxCell id="XK5SsUPaoGhKkD4XjnnI-6" value="&lt;font face=&quot;Comic Sans MS&quot; style=&quot;font-size: 16px;&quot;&gt;Add&lt;/font&gt;" style="ellipse;whiteSpace=wrap;html=1;aspect=fixed;sketch=1;curveFitting=1;jiggle=2;" parent="1" vertex="1">
          <mxGeometry x="530" y="235" width="50" height="50" as="geometry" />
        </mxCell>
        <mxCell id="XK5SsUPaoGhKkD4XjnnI-7" value="" style="endArrow=classic;html=1;rounded=0;entryX=0;entryY=0.5;entryDx=0;entryDy=0;sketch=1;curveFitting=1;jiggle=2;" parent="1" target="XK5SsUPaoGhKkD4XjnnI-2" edge="1">
          <mxGeometry width="50" height="50" relative="1" as="geometry">
            <mxPoint x="70" y="260" as="sourcePoint" />
            <mxPoint x="420" y="250" as="targetPoint" />
          </mxGeometry>
        </mxCell>
        <mxCell id="XK5SsUPaoGhKkD4XjnnI-8" value="" style="endArrow=classic;html=1;rounded=0;entryX=0.5;entryY=1;entryDx=0;entryDy=0;sketch=1;curveFitting=1;jiggle=2;" parent="1" target="XK5SsUPaoGhKkD4XjnnI-6" edge="1">
          <mxGeometry width="50" height="50" relative="1" as="geometry">
            <mxPoint x="120" y="260" as="sourcePoint" />
            <mxPoint x="420" y="250" as="targetPoint" />
            <Array as="points">
              <mxPoint x="120" y="360" />
              <mxPoint x="555" y="360" />
            </Array>
          </mxGeometry>
        </mxCell>
      </root>
    </mxGraphModel>
  </diagram>
  <diagram id="6fEq_1YOzrXXlHMF8epe" name="SPP">
    <mxGraphModel dx="1368" dy="800" grid="1" gridSize="10" guides="1" tooltips="1" connect="1" arrows="1" fold="1" page="1" pageScale="1" pageWidth="827" pageHeight="1169" math="0" shadow="0">
      <root>
        <mxCell id="0" />
        <mxCell id="1" parent="0" />
        <mxCell id="ljNG_IgdYptOk2S10APc-7" style="edgeStyle=orthogonalEdgeStyle;rounded=0;orthogonalLoop=1;jettySize=auto;html=1;exitX=0.5;exitY=1;exitDx=0;exitDy=0;entryX=0.5;entryY=0;entryDx=0;entryDy=0;fontFamily=Helvetica;fontSize=12;fontColor=default;" parent="1" source="ljNG_IgdYptOk2S10APc-1" target="ljNG_IgdYptOk2S10APc-4" edge="1">
          <mxGeometry relative="1" as="geometry" />
        </mxCell>
        <mxCell id="ljNG_IgdYptOk2S10APc-8" style="edgeStyle=orthogonalEdgeStyle;rounded=0;orthogonalLoop=1;jettySize=auto;html=1;exitX=0.5;exitY=1;exitDx=0;exitDy=0;entryX=0.5;entryY=0;entryDx=0;entryDy=0;fontFamily=Helvetica;fontSize=12;fontColor=default;" parent="1" source="ljNG_IgdYptOk2S10APc-1" target="ljNG_IgdYptOk2S10APc-5" edge="1">
          <mxGeometry relative="1" as="geometry" />
        </mxCell>
        <mxCell id="ljNG_IgdYptOk2S10APc-9" style="edgeStyle=orthogonalEdgeStyle;rounded=0;orthogonalLoop=1;jettySize=auto;html=1;exitX=0.5;exitY=1;exitDx=0;exitDy=0;entryX=0.5;entryY=0;entryDx=0;entryDy=0;fontFamily=Helvetica;fontSize=12;fontColor=default;" parent="1" source="ljNG_IgdYptOk2S10APc-1" target="ljNG_IgdYptOk2S10APc-6" edge="1">
          <mxGeometry relative="1" as="geometry" />
        </mxCell>
        <mxCell id="ljNG_IgdYptOk2S10APc-1" value="&lt;font style=&quot;font-size: 16px;&quot;&gt;&lt;b&gt;ConvBNSiLU&lt;br&gt;(512, 256)&lt;/b&gt;&lt;br&gt;&lt;/font&gt;" style="rounded=1;whiteSpace=wrap;html=1;fillColor=#dae8fc;strokeColor=#6c8ebf;strokeWidth=2;" parent="1" vertex="1">
          <mxGeometry x="310" y="640" width="120" height="60" as="geometry" />
        </mxCell>
        <mxCell id="ljNG_IgdYptOk2S10APc-3" value="" style="endArrow=classic;html=1;rounded=0;fontFamily=Courier New;fontSize=16;fontColor=default;" parent="1" target="ljNG_IgdYptOk2S10APc-1" edge="1">
          <mxGeometry width="50" height="50" relative="1" as="geometry">
            <mxPoint x="370" y="570" as="sourcePoint" />
            <mxPoint x="420" y="520" as="targetPoint" />
          </mxGeometry>
        </mxCell>
        <mxCell id="owCp6C5owCGPSzIeS86S-3" style="edgeStyle=orthogonalEdgeStyle;rounded=0;orthogonalLoop=1;jettySize=auto;html=1;exitX=0.5;exitY=1;exitDx=0;exitDy=0;entryX=0;entryY=0;entryDx=0;entryDy=0;fontFamily=Helvetica;fontSize=12;fontColor=default;" parent="1" source="ljNG_IgdYptOk2S10APc-4" target="owCp6C5owCGPSzIeS86S-1" edge="1">
          <mxGeometry relative="1" as="geometry" />
        </mxCell>
        <mxCell id="ljNG_IgdYptOk2S10APc-4" value="&lt;font style=&quot;&quot;&gt;&lt;b style=&quot;&quot;&gt;&lt;span style=&quot;font-size: 16px;&quot;&gt;MaxPool&lt;/span&gt;&lt;br&gt;&lt;font style=&quot;font-size: 12px;&quot;&gt;(256, 256, (13, 1, 6))&lt;/font&gt;&lt;br&gt;&lt;/b&gt;&lt;/font&gt;" style="rounded=1;whiteSpace=wrap;html=1;strokeColor=#82b366;strokeWidth=2;fontFamily=Helvetica;fontSize=12;fillColor=#d5e8d4;" parent="1" vertex="1">
          <mxGeometry x="160" y="740" width="120" height="60" as="geometry" />
        </mxCell>
        <mxCell id="owCp6C5owCGPSzIeS86S-2" value="" style="edgeStyle=orthogonalEdgeStyle;rounded=0;orthogonalLoop=1;jettySize=auto;html=1;fontFamily=Helvetica;fontSize=12;fontColor=default;" parent="1" source="ljNG_IgdYptOk2S10APc-5" target="owCp6C5owCGPSzIeS86S-1" edge="1">
          <mxGeometry relative="1" as="geometry" />
        </mxCell>
        <mxCell id="ljNG_IgdYptOk2S10APc-5" value="&lt;b style=&quot;border-color: var(--border-color); font-size: 16px;&quot;&gt;MaxPool&lt;br&gt;&lt;b style=&quot;border-color: var(--border-color); font-size: 12px;&quot;&gt;&lt;font style=&quot;border-color: var(--border-color);&quot;&gt;(256, 256, (9, 1, 4))&lt;/font&gt;&lt;/b&gt;&lt;br&gt;&lt;/b&gt;" style="rounded=1;whiteSpace=wrap;html=1;strokeColor=#82b366;strokeWidth=2;fontFamily=Helvetica;fontSize=12;fillColor=#d5e8d4;" parent="1" vertex="1">
          <mxGeometry x="310" y="740" width="120" height="60" as="geometry" />
        </mxCell>
        <mxCell id="owCp6C5owCGPSzIeS86S-5" style="edgeStyle=orthogonalEdgeStyle;rounded=0;orthogonalLoop=1;jettySize=auto;html=1;exitX=0.5;exitY=1;exitDx=0;exitDy=0;entryX=1;entryY=0;entryDx=0;entryDy=0;fontFamily=Helvetica;fontSize=12;fontColor=default;" parent="1" source="ljNG_IgdYptOk2S10APc-6" target="owCp6C5owCGPSzIeS86S-1" edge="1">
          <mxGeometry relative="1" as="geometry" />
        </mxCell>
        <mxCell id="ljNG_IgdYptOk2S10APc-6" value="&lt;b style=&quot;border-color: var(--border-color); font-size: 16px;&quot;&gt;MaxPool&lt;br&gt;&lt;b style=&quot;border-color: var(--border-color); font-size: 12px;&quot;&gt;&lt;font style=&quot;border-color: var(--border-color);&quot;&gt;(256, 256, (5, 1, 2))&lt;/font&gt;&lt;/b&gt;&lt;br&gt;&lt;/b&gt;" style="rounded=1;whiteSpace=wrap;html=1;strokeColor=#82b366;strokeWidth=2;fontFamily=Helvetica;fontSize=12;fillColor=#d5e8d4;" parent="1" vertex="1">
          <mxGeometry x="460" y="740" width="120" height="60" as="geometry" />
        </mxCell>
        <mxCell id="owCp6C5owCGPSzIeS86S-8" style="edgeStyle=orthogonalEdgeStyle;rounded=0;orthogonalLoop=1;jettySize=auto;html=1;exitX=0.5;exitY=1;exitDx=0;exitDy=0;fontFamily=Helvetica;fontSize=12;fontColor=default;" parent="1" source="ljNG_IgdYptOk2S10APc-10" edge="1">
          <mxGeometry relative="1" as="geometry">
            <mxPoint x="370" y="1030" as="targetPoint" />
          </mxGeometry>
        </mxCell>
        <mxCell id="ljNG_IgdYptOk2S10APc-10" value="&lt;font style=&quot;font-size: 16px;&quot;&gt;&lt;b&gt;ConvBNSiLU&lt;br&gt;(1024, 512)&lt;/b&gt;&lt;br&gt;&lt;/font&gt;" style="rounded=1;whiteSpace=wrap;html=1;fillColor=#dae8fc;strokeColor=#6c8ebf;strokeWidth=2;" parent="1" vertex="1">
          <mxGeometry x="310" y="930" width="120" height="60" as="geometry" />
        </mxCell>
        <mxCell id="owCp6C5owCGPSzIeS86S-7" style="edgeStyle=orthogonalEdgeStyle;rounded=0;orthogonalLoop=1;jettySize=auto;html=1;exitX=0.5;exitY=1;exitDx=0;exitDy=0;entryX=0.5;entryY=0;entryDx=0;entryDy=0;fontFamily=Helvetica;fontSize=12;fontColor=default;" parent="1" source="owCp6C5owCGPSzIeS86S-1" target="ljNG_IgdYptOk2S10APc-10" edge="1">
          <mxGeometry relative="1" as="geometry" />
        </mxCell>
        <mxCell id="owCp6C5owCGPSzIeS86S-1" value="&lt;font style=&quot;&quot; face=&quot;Comic Sans MS&quot;&gt;concat&lt;/font&gt;" style="ellipse;whiteSpace=wrap;html=1;aspect=fixed;fontSize=16;sketch=1;curveFitting=1;jiggle=2;" parent="1" vertex="1">
          <mxGeometry x="345" y="850" width="50" height="50" as="geometry" />
        </mxCell>
        <mxCell id="owCp6C5owCGPSzIeS86S-6" value="" style="endArrow=classic;html=1;rounded=0;fontFamily=Helvetica;fontSize=12;fontColor=default;entryX=1;entryY=0.5;entryDx=0;entryDy=0;" parent="1" target="owCp6C5owCGPSzIeS86S-1" edge="1">
          <mxGeometry width="50" height="50" relative="1" as="geometry">
            <mxPoint x="520" y="720" as="sourcePoint" />
            <mxPoint x="490" y="540" as="targetPoint" />
            <Array as="points">
              <mxPoint x="600" y="720" />
              <mxPoint x="600" y="875" />
            </Array>
          </mxGeometry>
        </mxCell>
      </root>
    </mxGraphModel>
  </diagram>
  <diagram id="KUA4FXEDGcqjG91bojcR" name="SPPF">
    <mxGraphModel dx="1368" dy="800" grid="1" gridSize="10" guides="1" tooltips="1" connect="1" arrows="1" fold="1" page="1" pageScale="1" pageWidth="827" pageHeight="1169" math="0" shadow="0">
      <root>
        <mxCell id="0" />
        <mxCell id="1" parent="0" />
        <mxCell id="zqOmxy2Rf8759oXLel0F-18" value="" style="edgeStyle=orthogonalEdgeStyle;rounded=0;orthogonalLoop=1;jettySize=auto;html=1;fontFamily=Helvetica;fontSize=12;fontColor=default;sketch=1;curveFitting=1;jiggle=2;" parent="1" source="zqOmxy2Rf8759oXLel0F-4" target="zqOmxy2Rf8759oXLel0F-17" edge="1">
          <mxGeometry relative="1" as="geometry" />
        </mxCell>
        <mxCell id="zqOmxy2Rf8759oXLel0F-4" value="&lt;font style=&quot;font-size: 16px;&quot;&gt;&lt;b&gt;ConvBNSiLU&lt;br&gt;(512, 256)&lt;/b&gt;&lt;br&gt;&lt;/font&gt;" style="rounded=1;whiteSpace=wrap;html=1;fillColor=#dae8fc;strokeColor=#6c8ebf;strokeWidth=2;sketch=1;curveFitting=1;jiggle=2;" parent="1" vertex="1">
          <mxGeometry x="150" y="490" width="120" height="60" as="geometry" />
        </mxCell>
        <mxCell id="zqOmxy2Rf8759oXLel0F-5" value="" style="endArrow=classic;html=1;rounded=0;fontFamily=Courier New;fontSize=16;fontColor=default;sketch=1;curveFitting=1;jiggle=2;" parent="1" target="zqOmxy2Rf8759oXLel0F-4" edge="1">
          <mxGeometry width="50" height="50" relative="1" as="geometry">
            <mxPoint x="210" y="440" as="sourcePoint" />
            <mxPoint x="260" y="390" as="targetPoint" />
          </mxGeometry>
        </mxCell>
        <mxCell id="zqOmxy2Rf8759oXLel0F-10" style="edgeStyle=orthogonalEdgeStyle;rounded=0;orthogonalLoop=1;jettySize=auto;html=1;exitX=0.5;exitY=1;exitDx=0;exitDy=0;entryX=1;entryY=0;entryDx=0;entryDy=0;fontFamily=Helvetica;fontSize=12;fontColor=default;sketch=1;curveFitting=1;jiggle=2;" parent="1" source="zqOmxy2Rf8759oXLel0F-11" target="zqOmxy2Rf8759oXLel0F-15" edge="1">
          <mxGeometry relative="1" as="geometry" />
        </mxCell>
        <mxCell id="zqOmxy2Rf8759oXLel0F-21" value="" style="edgeStyle=orthogonalEdgeStyle;rounded=0;orthogonalLoop=1;jettySize=auto;html=1;fontFamily=Helvetica;fontSize=12;fontColor=default;sketch=1;curveFitting=1;jiggle=2;" parent="1" source="zqOmxy2Rf8759oXLel0F-11" target="zqOmxy2Rf8759oXLel0F-20" edge="1">
          <mxGeometry relative="1" as="geometry" />
        </mxCell>
        <mxCell id="zqOmxy2Rf8759oXLel0F-11" value="&lt;b style=&quot;border-color: var(--border-color); font-size: 16px;&quot;&gt;MaxPool&lt;br&gt;&lt;b style=&quot;border-color: var(--border-color); font-size: 12px;&quot;&gt;&lt;font style=&quot;border-color: var(--border-color);&quot;&gt;(256, 256, (5, 1, 2))&lt;/font&gt;&lt;/b&gt;&lt;br&gt;&lt;/b&gt;" style="rounded=1;whiteSpace=wrap;html=1;strokeColor=#82b366;strokeWidth=2;fontFamily=Helvetica;fontSize=12;fillColor=#d5e8d4;sketch=1;curveFitting=1;jiggle=2;" parent="1" vertex="1">
          <mxGeometry x="300" y="610" width="120" height="60" as="geometry" />
        </mxCell>
        <mxCell id="zqOmxy2Rf8759oXLel0F-12" style="edgeStyle=orthogonalEdgeStyle;rounded=0;orthogonalLoop=1;jettySize=auto;html=1;exitX=0.5;exitY=1;exitDx=0;exitDy=0;fontFamily=Helvetica;fontSize=12;fontColor=default;sketch=1;curveFitting=1;jiggle=2;" parent="1" source="zqOmxy2Rf8759oXLel0F-13" edge="1">
          <mxGeometry relative="1" as="geometry">
            <mxPoint x="210" y="900" as="targetPoint" />
          </mxGeometry>
        </mxCell>
        <mxCell id="zqOmxy2Rf8759oXLel0F-13" value="&lt;font style=&quot;font-size: 16px;&quot;&gt;&lt;b&gt;ConvBNSiLU&lt;br&gt;(1024, 512)&lt;/b&gt;&lt;br&gt;&lt;/font&gt;" style="rounded=1;whiteSpace=wrap;html=1;fillColor=#dae8fc;strokeColor=#6c8ebf;strokeWidth=2;sketch=1;curveFitting=1;jiggle=2;" parent="1" vertex="1">
          <mxGeometry x="150" y="800" width="120" height="60" as="geometry" />
        </mxCell>
        <mxCell id="zqOmxy2Rf8759oXLel0F-14" style="edgeStyle=orthogonalEdgeStyle;rounded=0;orthogonalLoop=1;jettySize=auto;html=1;exitX=0.5;exitY=1;exitDx=0;exitDy=0;entryX=0.5;entryY=0;entryDx=0;entryDy=0;fontFamily=Helvetica;fontSize=12;fontColor=default;sketch=1;curveFitting=1;jiggle=2;" parent="1" source="zqOmxy2Rf8759oXLel0F-15" target="zqOmxy2Rf8759oXLel0F-13" edge="1">
          <mxGeometry relative="1" as="geometry" />
        </mxCell>
        <mxCell id="zqOmxy2Rf8759oXLel0F-15" value="&lt;font style=&quot;&quot; face=&quot;Comic Sans MS&quot;&gt;concat&lt;/font&gt;" style="ellipse;whiteSpace=wrap;html=1;aspect=fixed;fontSize=16;sketch=1;curveFitting=1;jiggle=2;" parent="1" vertex="1">
          <mxGeometry x="185" y="720" width="50" height="50" as="geometry" />
        </mxCell>
        <mxCell id="zqOmxy2Rf8759oXLel0F-19" value="" style="edgeStyle=orthogonalEdgeStyle;rounded=0;orthogonalLoop=1;jettySize=auto;html=1;fontFamily=Helvetica;fontSize=12;fontColor=default;sketch=1;curveFitting=1;jiggle=2;" parent="1" source="zqOmxy2Rf8759oXLel0F-17" target="zqOmxy2Rf8759oXLel0F-11" edge="1">
          <mxGeometry relative="1" as="geometry" />
        </mxCell>
        <mxCell id="zqOmxy2Rf8759oXLel0F-22" style="edgeStyle=orthogonalEdgeStyle;rounded=0;orthogonalLoop=1;jettySize=auto;html=1;exitX=0.5;exitY=1;exitDx=0;exitDy=0;entryX=0.5;entryY=0;entryDx=0;entryDy=0;fontFamily=Helvetica;fontSize=12;fontColor=default;sketch=1;curveFitting=1;jiggle=2;" parent="1" source="zqOmxy2Rf8759oXLel0F-17" target="zqOmxy2Rf8759oXLel0F-15" edge="1">
          <mxGeometry relative="1" as="geometry" />
        </mxCell>
        <mxCell id="zqOmxy2Rf8759oXLel0F-17" value="&lt;b style=&quot;border-color: var(--border-color); font-size: 16px;&quot;&gt;MaxPool&lt;br&gt;&lt;b style=&quot;border-color: var(--border-color); font-size: 12px;&quot;&gt;&lt;font style=&quot;border-color: var(--border-color);&quot;&gt;(256, 256, (5, 1, 2))&lt;/font&gt;&lt;/b&gt;&lt;br&gt;&lt;/b&gt;" style="rounded=1;whiteSpace=wrap;html=1;strokeColor=#82b366;strokeWidth=2;fontFamily=Helvetica;fontSize=12;fillColor=#d5e8d4;sketch=1;curveFitting=1;jiggle=2;" parent="1" vertex="1">
          <mxGeometry x="150" y="610" width="120" height="60" as="geometry" />
        </mxCell>
        <mxCell id="zqOmxy2Rf8759oXLel0F-24" style="edgeStyle=orthogonalEdgeStyle;rounded=0;orthogonalLoop=1;jettySize=auto;html=1;exitX=0.5;exitY=1;exitDx=0;exitDy=0;entryX=1;entryY=0.5;entryDx=0;entryDy=0;fontFamily=Helvetica;fontSize=12;fontColor=default;sketch=1;curveFitting=1;jiggle=2;" parent="1" source="zqOmxy2Rf8759oXLel0F-20" target="zqOmxy2Rf8759oXLel0F-15" edge="1">
          <mxGeometry relative="1" as="geometry" />
        </mxCell>
        <mxCell id="zqOmxy2Rf8759oXLel0F-20" value="&lt;b style=&quot;border-color: var(--border-color); font-size: 16px;&quot;&gt;MaxPool&lt;br&gt;&lt;b style=&quot;border-color: var(--border-color); font-size: 12px;&quot;&gt;&lt;font style=&quot;border-color: var(--border-color);&quot;&gt;(256, 256, (5, 1, 2))&lt;/font&gt;&lt;/b&gt;&lt;br&gt;&lt;/b&gt;" style="rounded=1;whiteSpace=wrap;html=1;strokeColor=#82b366;strokeWidth=2;fontFamily=Helvetica;fontSize=12;fillColor=#d5e8d4;sketch=1;curveFitting=1;jiggle=2;" parent="1" vertex="1">
          <mxGeometry x="450" y="610" width="120" height="60" as="geometry" />
        </mxCell>
        <mxCell id="zqOmxy2Rf8759oXLel0F-25" value="" style="endArrow=classic;html=1;rounded=0;fontFamily=Helvetica;fontSize=12;fontColor=default;entryX=0;entryY=0.5;entryDx=0;entryDy=0;sketch=1;curveFitting=1;jiggle=2;" parent="1" target="zqOmxy2Rf8759oXLel0F-15" edge="1">
          <mxGeometry width="50" height="50" relative="1" as="geometry">
            <mxPoint x="210" y="580" as="sourcePoint" />
            <mxPoint x="260" y="530" as="targetPoint" />
            <Array as="points">
              <mxPoint x="120" y="580" />
              <mxPoint x="120" y="745" />
            </Array>
          </mxGeometry>
        </mxCell>
      </root>
    </mxGraphModel>
  </diagram>
  <diagram id="gbpYwjRZgcPD1HadQVWr" name="Detail">
    <mxGraphModel dx="943" dy="552" grid="1" gridSize="10" guides="1" tooltips="1" connect="1" arrows="1" fold="1" page="1" pageScale="1" pageWidth="827" pageHeight="1169" math="0" shadow="0">
      <root>
        <mxCell id="0" />
        <mxCell id="1" parent="0" />
        <mxCell id="EGZGGG_lSdTqczfZfF0I-1" style="edgeStyle=orthogonalEdgeStyle;rounded=0;orthogonalLoop=1;jettySize=auto;html=1;exitX=0.5;exitY=1;exitDx=0;exitDy=0;sketch=1;curveFitting=1;jiggle=2;" parent="1" source="EGZGGG_lSdTqczfZfF0I-78" target="EGZGGG_lSdTqczfZfF0I-3" edge="1">
          <mxGeometry relative="1" as="geometry" />
        </mxCell>
        <mxCell id="EGZGGG_lSdTqczfZfF0I-2" style="edgeStyle=orthogonalEdgeStyle;rounded=0;orthogonalLoop=1;jettySize=auto;html=1;exitX=0.5;exitY=1;exitDx=0;exitDy=0;entryX=0.5;entryY=0;entryDx=0;entryDy=0;fontFamily=Courier New;fontSize=16;sketch=1;curveFitting=1;jiggle=2;" parent="1" source="EGZGGG_lSdTqczfZfF0I-3" target="EGZGGG_lSdTqczfZfF0I-6" edge="1">
          <mxGeometry relative="1" as="geometry" />
        </mxCell>
        <mxCell id="EGZGGG_lSdTqczfZfF0I-3" value="&lt;font style=&quot;font-size: 16px;&quot;&gt;&lt;b style=&quot;font-size: 13px;&quot;&gt;&lt;font style=&quot;font-size: 13px;&quot; face=&quot;Comic Sans MS&quot;&gt;ConvBNSiLU&lt;br&gt;(3, 32, (6, 2, 2))&lt;/font&gt;&lt;/b&gt;&lt;br&gt;&lt;/font&gt;" style="rounded=1;whiteSpace=wrap;html=1;fillColor=#dae8fc;strokeColor=#6c8ebf;strokeWidth=2;sketch=1;curveFitting=1;jiggle=2;shadow=0;" parent="1" vertex="1">
          <mxGeometry x="30" y="260" width="120" height="60" as="geometry" />
        </mxCell>
        <mxCell id="EGZGGG_lSdTqczfZfF0I-5" style="edgeStyle=orthogonalEdgeStyle;rounded=0;orthogonalLoop=1;jettySize=auto;html=1;exitX=0.5;exitY=1;exitDx=0;exitDy=0;entryX=0.5;entryY=0;entryDx=0;entryDy=0;fontFamily=Helvetica;fontSize=16;sketch=1;curveFitting=1;jiggle=2;" parent="1" source="EGZGGG_lSdTqczfZfF0I-6" target="EGZGGG_lSdTqczfZfF0I-9" edge="1">
          <mxGeometry relative="1" as="geometry" />
        </mxCell>
        <mxCell id="EGZGGG_lSdTqczfZfF0I-6" value="&lt;font style=&quot;font-size: 16px;&quot;&gt;&lt;b style=&quot;font-size: 13px;&quot;&gt;&lt;font style=&quot;font-size: 13px;&quot; face=&quot;Comic Sans MS&quot;&gt;ConvBNSiLU&lt;br&gt;(32, 64, (3, 2))&lt;/font&gt;&lt;/b&gt;&lt;br&gt;&lt;/font&gt;" style="rounded=1;whiteSpace=wrap;html=1;fillColor=#dae8fc;strokeColor=#6c8ebf;strokeWidth=2;sketch=1;curveFitting=1;jiggle=2;shadow=0;" parent="1" vertex="1">
          <mxGeometry x="30" y="340" width="120" height="60" as="geometry" />
        </mxCell>
        <mxCell id="EGZGGG_lSdTqczfZfF0I-8" style="edgeStyle=orthogonalEdgeStyle;rounded=0;orthogonalLoop=1;jettySize=auto;html=1;exitX=0.5;exitY=1;exitDx=0;exitDy=0;entryX=0.5;entryY=0;entryDx=0;entryDy=0;fontFamily=Helvetica;fontSize=16;sketch=1;curveFitting=1;jiggle=2;" parent="1" source="EGZGGG_lSdTqczfZfF0I-9" target="EGZGGG_lSdTqczfZfF0I-11" edge="1">
          <mxGeometry relative="1" as="geometry" />
        </mxCell>
        <mxCell id="EGZGGG_lSdTqczfZfF0I-9" value="&lt;font face=&quot;Comic Sans MS&quot; style=&quot;font-size: 16px;&quot;&gt;&lt;b style=&quot;&quot;&gt;C3&lt;br&gt;(64,64)&lt;/b&gt;&lt;/font&gt;" style="rounded=1;whiteSpace=wrap;html=1;fontFamily=Courier New;fontSize=16;fillColor=#ffe6cc;strokeColor=#d79b00;strokeWidth=2;glass=0;shadow=0;sketch=1;curveFitting=1;jiggle=2;" parent="1" vertex="1">
          <mxGeometry x="30" y="420" width="120" height="60" as="geometry" />
        </mxCell>
        <mxCell id="EGZGGG_lSdTqczfZfF0I-10" style="edgeStyle=orthogonalEdgeStyle;rounded=0;orthogonalLoop=1;jettySize=auto;html=1;exitX=0.5;exitY=1;exitDx=0;exitDy=0;entryX=0.5;entryY=0;entryDx=0;entryDy=0;fontFamily=Helvetica;fontSize=16;sketch=1;curveFitting=1;jiggle=2;" parent="1" source="EGZGGG_lSdTqczfZfF0I-11" target="EGZGGG_lSdTqczfZfF0I-15" edge="1">
          <mxGeometry relative="1" as="geometry" />
        </mxCell>
        <mxCell id="EGZGGG_lSdTqczfZfF0I-11" value="&lt;font style=&quot;font-size: 16px;&quot;&gt;&lt;b style=&quot;font-size: 13px;&quot;&gt;&lt;font style=&quot;font-size: 13px;&quot; face=&quot;Comic Sans MS&quot;&gt;ConvBNSiLU&lt;br&gt;(64, 128, (3, 2))&lt;/font&gt;&lt;/b&gt;&lt;br&gt;&lt;/font&gt;" style="rounded=1;whiteSpace=wrap;html=1;fillColor=#dae8fc;strokeColor=#6c8ebf;strokeWidth=2;sketch=1;curveFitting=1;jiggle=2;shadow=0;" parent="1" vertex="1">
          <mxGeometry x="30" y="500" width="120" height="60" as="geometry" />
        </mxCell>
        <mxCell id="EGZGGG_lSdTqczfZfF0I-12" value="" style="edgeStyle=orthogonalEdgeStyle;rounded=0;orthogonalLoop=1;jettySize=auto;html=1;fontFamily=Helvetica;fontSize=16;sketch=1;curveFitting=1;jiggle=2;" parent="1" source="EGZGGG_lSdTqczfZfF0I-13" target="EGZGGG_lSdTqczfZfF0I-17" edge="1">
          <mxGeometry relative="1" as="geometry" />
        </mxCell>
        <mxCell id="EGZGGG_lSdTqczfZfF0I-13" value="&lt;font style=&quot;font-size: 16px;&quot;&gt;&lt;b style=&quot;font-size: 13px;&quot;&gt;&lt;font style=&quot;font-size: 13px;&quot; face=&quot;Comic Sans MS&quot;&gt;ConvBNSiLU&lt;br&gt;(128, 256, (3,2))&lt;/font&gt;&lt;/b&gt;&lt;br&gt;&lt;/font&gt;" style="rounded=1;whiteSpace=wrap;html=1;fillColor=#dae8fc;strokeColor=#6c8ebf;strokeWidth=2;sketch=1;curveFitting=1;jiggle=2;shadow=0;" parent="1" vertex="1">
          <mxGeometry x="30" y="680" width="120" height="60" as="geometry" />
        </mxCell>
        <mxCell id="EGZGGG_lSdTqczfZfF0I-14" style="edgeStyle=orthogonalEdgeStyle;rounded=0;orthogonalLoop=1;jettySize=auto;html=1;exitX=0.5;exitY=1;exitDx=0;exitDy=0;entryX=0.5;entryY=0;entryDx=0;entryDy=0;fontFamily=Helvetica;fontSize=16;sketch=1;curveFitting=1;jiggle=2;" parent="1" source="EGZGGG_lSdTqczfZfF0I-15" target="EGZGGG_lSdTqczfZfF0I-13" edge="1">
          <mxGeometry relative="1" as="geometry" />
        </mxCell>
        <mxCell id="EGZGGG_lSdTqczfZfF0I-15" value="&lt;font face=&quot;Comic Sans MS&quot; style=&quot;font-size: 16px;&quot;&gt;&lt;b style=&quot;&quot;&gt;C3*2&lt;br&gt;(128,128)&lt;/b&gt;&lt;/font&gt;" style="rounded=1;whiteSpace=wrap;html=1;fontFamily=Courier New;fontSize=16;fillColor=#ffe6cc;strokeColor=#d79b00;strokeWidth=2;glass=0;shadow=0;sketch=1;curveFitting=1;jiggle=2;" parent="1" vertex="1">
          <mxGeometry x="30" y="580" width="120" height="60" as="geometry" />
        </mxCell>
        <mxCell id="EGZGGG_lSdTqczfZfF0I-16" value="" style="edgeStyle=orthogonalEdgeStyle;rounded=0;orthogonalLoop=1;jettySize=auto;html=1;fontFamily=Helvetica;fontSize=16;sketch=1;curveFitting=1;jiggle=2;" parent="1" source="EGZGGG_lSdTqczfZfF0I-17" target="EGZGGG_lSdTqczfZfF0I-19" edge="1">
          <mxGeometry relative="1" as="geometry" />
        </mxCell>
        <mxCell id="EGZGGG_lSdTqczfZfF0I-17" value="&lt;font face=&quot;Comic Sans MS&quot; style=&quot;font-size: 16px;&quot;&gt;&lt;b style=&quot;&quot;&gt;C3*3&lt;br&gt;(256, 256)&lt;/b&gt;&lt;/font&gt;" style="rounded=1;whiteSpace=wrap;html=1;fontFamily=Courier New;fontSize=16;fillColor=#ffe6cc;strokeColor=#d79b00;strokeWidth=2;glass=0;shadow=0;sketch=1;curveFitting=1;jiggle=2;" parent="1" vertex="1">
          <mxGeometry x="30" y="780" width="120" height="60" as="geometry" />
        </mxCell>
        <mxCell id="EGZGGG_lSdTqczfZfF0I-18" value="" style="edgeStyle=orthogonalEdgeStyle;rounded=0;orthogonalLoop=1;jettySize=auto;html=1;fontFamily=Helvetica;fontSize=16;sketch=1;curveFitting=1;jiggle=2;" parent="1" source="EGZGGG_lSdTqczfZfF0I-19" target="EGZGGG_lSdTqczfZfF0I-21" edge="1">
          <mxGeometry relative="1" as="geometry" />
        </mxCell>
        <mxCell id="EGZGGG_lSdTqczfZfF0I-19" value="&lt;font style=&quot;font-size: 16px;&quot;&gt;&lt;b style=&quot;font-size: 13px;&quot;&gt;&lt;font style=&quot;font-size: 13px;&quot; face=&quot;Comic Sans MS&quot;&gt;ConvBNSiLU&lt;br&gt;(256, 512, (3,2))&lt;/font&gt;&lt;/b&gt;&lt;br&gt;&lt;/font&gt;" style="rounded=1;whiteSpace=wrap;html=1;fillColor=#dae8fc;strokeColor=#6c8ebf;strokeWidth=2;sketch=1;curveFitting=1;jiggle=2;shadow=0;" parent="1" vertex="1">
          <mxGeometry x="30" y="880" width="120" height="60" as="geometry" />
        </mxCell>
        <mxCell id="EGZGGG_lSdTqczfZfF0I-20" style="edgeStyle=orthogonalEdgeStyle;rounded=0;orthogonalLoop=1;jettySize=auto;html=1;exitX=0.5;exitY=1;exitDx=0;exitDy=0;entryX=0.5;entryY=0;entryDx=0;entryDy=0;fontFamily=Helvetica;fontSize=16;sketch=1;curveFitting=1;jiggle=2;" parent="1" source="EGZGGG_lSdTqczfZfF0I-21" target="EGZGGG_lSdTqczfZfF0I-27" edge="1">
          <mxGeometry relative="1" as="geometry" />
        </mxCell>
        <mxCell id="EGZGGG_lSdTqczfZfF0I-21" value="&lt;font face=&quot;Comic Sans MS&quot; style=&quot;font-size: 16px;&quot;&gt;&lt;b style=&quot;&quot;&gt;C3*3&lt;br&gt;(512, 512)&lt;/b&gt;&lt;/font&gt;" style="rounded=1;whiteSpace=wrap;html=1;fontFamily=Courier New;fontSize=16;fillColor=#ffe6cc;strokeColor=#d79b00;strokeWidth=2;glass=0;shadow=0;sketch=1;curveFitting=1;jiggle=2;" parent="1" vertex="1">
          <mxGeometry x="30" y="980" width="120" height="60" as="geometry" />
        </mxCell>
        <mxCell id="EGZGGG_lSdTqczfZfF0I-26" style="edgeStyle=orthogonalEdgeStyle;rounded=0;orthogonalLoop=1;jettySize=auto;html=1;exitX=1;exitY=0.5;exitDx=0;exitDy=0;entryX=0;entryY=0.5;entryDx=0;entryDy=0;sketch=1;curveFitting=1;jiggle=2;" parent="1" source="EGZGGG_lSdTqczfZfF0I-27" target="EGZGGG_lSdTqczfZfF0I-31" edge="1">
          <mxGeometry relative="1" as="geometry" />
        </mxCell>
        <mxCell id="EGZGGG_lSdTqczfZfF0I-27" value="&lt;b&gt;&lt;font face=&quot;Comic Sans MS&quot;&gt;SPPF&lt;br&gt;(512, 512)&lt;/font&gt;&lt;/b&gt;" style="rounded=1;whiteSpace=wrap;html=1;fontFamily=Helvetica;fontSize=16;fillColor=#f8cecc;strokeColor=#b85450;sketch=1;curveFitting=1;jiggle=2;" parent="1" vertex="1">
          <mxGeometry x="30" y="1080" width="120" height="60" as="geometry" />
        </mxCell>
        <mxCell id="EGZGGG_lSdTqczfZfF0I-29" style="edgeStyle=orthogonalEdgeStyle;rounded=0;orthogonalLoop=1;jettySize=auto;html=1;exitX=0.5;exitY=0;exitDx=0;exitDy=0;fontSize=16;sketch=1;curveFitting=1;jiggle=2;" parent="1" source="EGZGGG_lSdTqczfZfF0I-31" target="EGZGGG_lSdTqczfZfF0I-33" edge="1">
          <mxGeometry relative="1" as="geometry" />
        </mxCell>
        <mxCell id="EGZGGG_lSdTqczfZfF0I-30" value="" style="edgeStyle=orthogonalEdgeStyle;rounded=0;orthogonalLoop=1;jettySize=auto;html=1;fontSize=16;sketch=1;curveFitting=1;jiggle=2;" parent="1" source="EGZGGG_lSdTqczfZfF0I-31" target="EGZGGG_lSdTqczfZfF0I-60" edge="1">
          <mxGeometry relative="1" as="geometry">
            <Array as="points">
              <mxPoint x="360" y="1110" />
              <mxPoint x="360" y="1025" />
            </Array>
          </mxGeometry>
        </mxCell>
        <mxCell id="EGZGGG_lSdTqczfZfF0I-31" value="&lt;font style=&quot;font-size: 16px;&quot;&gt;&lt;b style=&quot;font-size: 13px;&quot;&gt;&lt;font style=&quot;font-size: 13px;&quot; face=&quot;Comic Sans MS&quot;&gt;ConvBNSiLU&lt;br&gt;(512, 256, (1,1))&lt;/font&gt;&lt;/b&gt;&lt;br&gt;&lt;/font&gt;" style="rounded=1;whiteSpace=wrap;html=1;fillColor=#dae8fc;strokeColor=#6c8ebf;strokeWidth=2;sketch=1;curveFitting=1;jiggle=2;shadow=0;" parent="1" vertex="1">
          <mxGeometry x="210" y="1080" width="120" height="60" as="geometry" />
        </mxCell>
        <mxCell id="EGZGGG_lSdTqczfZfF0I-32" style="edgeStyle=orthogonalEdgeStyle;rounded=0;orthogonalLoop=1;jettySize=auto;html=1;exitX=0.5;exitY=0;exitDx=0;exitDy=0;entryX=0.5;entryY=1;entryDx=0;entryDy=0;fontSize=16;sketch=1;curveFitting=1;jiggle=2;" parent="1" source="EGZGGG_lSdTqczfZfF0I-33" target="EGZGGG_lSdTqczfZfF0I-36" edge="1">
          <mxGeometry relative="1" as="geometry" />
        </mxCell>
        <mxCell id="EGZGGG_lSdTqczfZfF0I-33" value="&lt;font style=&quot;font-size: 16px;&quot;&gt;&lt;b&gt;&lt;font face=&quot;Comic Sans MS&quot;&gt;upsample&lt;br&gt;(256, 256)&lt;/font&gt;&lt;br&gt;&lt;/b&gt;&lt;/font&gt;" style="rounded=1;whiteSpace=wrap;html=1;fillColor=#d5e8d4;strokeColor=#82b366;sketch=1;curveFitting=1;jiggle=2;strokeWidth=2;shadow=0;" parent="1" vertex="1">
          <mxGeometry x="210" y="980" width="120" height="60" as="geometry" />
        </mxCell>
        <mxCell id="EGZGGG_lSdTqczfZfF0I-34" value="" style="endArrow=classic;html=1;rounded=0;fontSize=16;entryX=0;entryY=0.5;entryDx=0;entryDy=0;sketch=1;curveFitting=1;jiggle=2;" parent="1" target="EGZGGG_lSdTqczfZfF0I-36" edge="1">
          <mxGeometry width="50" height="50" relative="1" as="geometry">
            <mxPoint x="90" y="860" as="sourcePoint" />
            <mxPoint x="200" y="900" as="targetPoint" />
            <Array as="points">
              <mxPoint x="170" y="860" />
              <mxPoint x="170" y="940" />
            </Array>
          </mxGeometry>
        </mxCell>
        <mxCell id="EGZGGG_lSdTqczfZfF0I-35" value="" style="edgeStyle=orthogonalEdgeStyle;rounded=0;orthogonalLoop=1;jettySize=auto;html=1;fontSize=16;sketch=1;curveFitting=1;jiggle=2;" parent="1" source="EGZGGG_lSdTqczfZfF0I-36" target="EGZGGG_lSdTqczfZfF0I-38" edge="1">
          <mxGeometry relative="1" as="geometry" />
        </mxCell>
        <mxCell id="EGZGGG_lSdTqczfZfF0I-36" value="&lt;font face=&quot;Comic Sans MS&quot;&gt;concat&lt;/font&gt;" style="ellipse;whiteSpace=wrap;html=1;aspect=fixed;fontSize=16;sketch=1;curveFitting=1;jiggle=2;" parent="1" vertex="1">
          <mxGeometry x="245" y="915" width="50" height="50" as="geometry" />
        </mxCell>
        <mxCell id="EGZGGG_lSdTqczfZfF0I-37" value="" style="edgeStyle=orthogonalEdgeStyle;rounded=0;orthogonalLoop=1;jettySize=auto;html=1;fontSize=16;sketch=1;curveFitting=1;jiggle=2;" parent="1" source="EGZGGG_lSdTqczfZfF0I-38" target="EGZGGG_lSdTqczfZfF0I-40" edge="1">
          <mxGeometry relative="1" as="geometry" />
        </mxCell>
        <mxCell id="EGZGGG_lSdTqczfZfF0I-38" value="&lt;font face=&quot;Comic Sans MS&quot; style=&quot;font-size: 16px;&quot;&gt;&lt;b style=&quot;&quot;&gt;C3&lt;br&gt;(512, 256)&lt;/b&gt;&lt;/font&gt;" style="rounded=1;whiteSpace=wrap;html=1;fontFamily=Courier New;fontSize=16;fillColor=#ffe6cc;strokeColor=#d79b00;strokeWidth=2;glass=0;shadow=0;sketch=1;curveFitting=1;jiggle=2;" parent="1" vertex="1">
          <mxGeometry x="210" y="840" width="120" height="60" as="geometry" />
        </mxCell>
        <mxCell id="EGZGGG_lSdTqczfZfF0I-39" value="" style="edgeStyle=orthogonalEdgeStyle;rounded=0;orthogonalLoop=1;jettySize=auto;html=1;fontSize=16;sketch=1;curveFitting=1;jiggle=2;" parent="1" source="EGZGGG_lSdTqczfZfF0I-40" target="EGZGGG_lSdTqczfZfF0I-42" edge="1">
          <mxGeometry relative="1" as="geometry" />
        </mxCell>
        <mxCell id="EGZGGG_lSdTqczfZfF0I-40" value="&lt;font style=&quot;font-size: 16px;&quot;&gt;&lt;b style=&quot;font-size: 13px;&quot;&gt;&lt;font style=&quot;font-size: 13px;&quot; face=&quot;Comic Sans MS&quot;&gt;ConvBNSiLU&lt;br&gt;(256, 128, (1,1))&lt;/font&gt;&lt;/b&gt;&lt;br&gt;&lt;/font&gt;" style="rounded=1;whiteSpace=wrap;html=1;fillColor=#dae8fc;strokeColor=#6c8ebf;strokeWidth=2;sketch=1;curveFitting=1;jiggle=2;shadow=0;" parent="1" vertex="1">
          <mxGeometry x="210" y="760" width="120" height="60" as="geometry" />
        </mxCell>
        <mxCell id="EGZGGG_lSdTqczfZfF0I-41" value="" style="edgeStyle=orthogonalEdgeStyle;rounded=0;orthogonalLoop=1;jettySize=auto;html=1;fontSize=16;sketch=1;curveFitting=1;jiggle=2;" parent="1" source="EGZGGG_lSdTqczfZfF0I-42" target="EGZGGG_lSdTqczfZfF0I-44" edge="1">
          <mxGeometry relative="1" as="geometry" />
        </mxCell>
        <mxCell id="EGZGGG_lSdTqczfZfF0I-42" value="&lt;font style=&quot;font-size: 16px;&quot;&gt;&lt;b&gt;&lt;font face=&quot;Comic Sans MS&quot;&gt;upsample&lt;br&gt;(128, 128)&lt;/font&gt;&lt;br&gt;&lt;/b&gt;&lt;/font&gt;" style="rounded=1;whiteSpace=wrap;html=1;fillColor=#d5e8d4;strokeColor=#82b366;sketch=1;curveFitting=1;jiggle=2;strokeWidth=2;shadow=0;" parent="1" vertex="1">
          <mxGeometry x="210" y="680" width="120" height="60" as="geometry" />
        </mxCell>
        <mxCell id="EGZGGG_lSdTqczfZfF0I-43" value="" style="edgeStyle=orthogonalEdgeStyle;rounded=0;orthogonalLoop=1;jettySize=auto;html=1;fontSize=16;sketch=1;curveFitting=1;jiggle=2;" parent="1" source="EGZGGG_lSdTqczfZfF0I-44" target="EGZGGG_lSdTqczfZfF0I-50" edge="1">
          <mxGeometry relative="1" as="geometry" />
        </mxCell>
        <mxCell id="EGZGGG_lSdTqczfZfF0I-44" value="&lt;font style=&quot;&quot; face=&quot;Comic Sans MS&quot;&gt;concat&lt;/font&gt;" style="ellipse;whiteSpace=wrap;html=1;aspect=fixed;fontSize=16;sketch=1;curveFitting=1;jiggle=2;" parent="1" vertex="1">
          <mxGeometry x="245" y="610" width="50" height="50" as="geometry" />
        </mxCell>
        <mxCell id="EGZGGG_lSdTqczfZfF0I-45" value="" style="endArrow=classic;html=1;rounded=0;fontSize=16;entryX=0;entryY=0.5;entryDx=0;entryDy=0;sketch=1;curveFitting=1;jiggle=2;" parent="1" target="EGZGGG_lSdTqczfZfF0I-44" edge="1">
          <mxGeometry width="50" height="50" relative="1" as="geometry">
            <mxPoint x="90" y="660" as="sourcePoint" />
            <mxPoint x="410" y="370" as="targetPoint" />
            <Array as="points">
              <mxPoint x="170" y="660" />
              <mxPoint x="170" y="635" />
            </Array>
          </mxGeometry>
        </mxCell>
        <mxCell id="EGZGGG_lSdTqczfZfF0I-46" value="&lt;span style=&quot;font-weight: normal;&quot;&gt;&lt;font style=&quot;font-size: 20px;&quot; face=&quot;Courier New&quot;&gt;P4&lt;/font&gt;&lt;/span&gt;" style="text;strokeColor=none;fillColor=none;html=1;fontSize=24;fontStyle=1;verticalAlign=middle;align=center;sketch=1;curveFitting=1;jiggle=2;" parent="1" vertex="1">
          <mxGeometry x="140" y="880" width="100" height="40" as="geometry" />
        </mxCell>
        <mxCell id="EGZGGG_lSdTqczfZfF0I-47" value="&lt;span style=&quot;font-weight: normal;&quot;&gt;&lt;font style=&quot;font-size: 20px;&quot; face=&quot;Courier New&quot;&gt;P3&lt;/font&gt;&lt;/span&gt;" style="text;strokeColor=none;fillColor=none;html=1;fontSize=24;fontStyle=1;verticalAlign=middle;align=center;sketch=1;curveFitting=1;jiggle=2;" parent="1" vertex="1">
          <mxGeometry x="140" y="600" width="100" height="40" as="geometry" />
        </mxCell>
        <mxCell id="EGZGGG_lSdTqczfZfF0I-48" value="" style="edgeStyle=orthogonalEdgeStyle;rounded=0;orthogonalLoop=1;jettySize=auto;html=1;fontSize=16;sketch=1;curveFitting=1;jiggle=2;" parent="1" source="EGZGGG_lSdTqczfZfF0I-50" target="EGZGGG_lSdTqczfZfF0I-52" edge="1">
          <mxGeometry relative="1" as="geometry" />
        </mxCell>
        <mxCell id="EGZGGG_lSdTqczfZfF0I-49" style="edgeStyle=orthogonalEdgeStyle;rounded=0;orthogonalLoop=1;jettySize=auto;html=1;exitX=1;exitY=0.5;exitDx=0;exitDy=0;fontSize=16;entryX=0;entryY=0.25;entryDx=0;entryDy=0;sketch=1;curveFitting=1;jiggle=2;" parent="1" source="EGZGGG_lSdTqczfZfF0I-50" target="EGZGGG_lSdTqczfZfF0I-81" edge="1">
          <mxGeometry relative="1" as="geometry">
            <mxPoint x="560" y="670" as="targetPoint" />
          </mxGeometry>
        </mxCell>
        <mxCell id="EGZGGG_lSdTqczfZfF0I-50" value="&lt;font face=&quot;Comic Sans MS&quot; style=&quot;font-size: 16px;&quot;&gt;&lt;b style=&quot;&quot;&gt;C3&lt;br&gt;(256, 128)&lt;/b&gt;&lt;/font&gt;" style="rounded=1;whiteSpace=wrap;html=1;fontFamily=Courier New;fontSize=16;fillColor=#ffe6cc;strokeColor=#d79b00;strokeWidth=2;glass=0;shadow=0;sketch=1;curveFitting=1;jiggle=2;" parent="1" vertex="1">
          <mxGeometry x="390" y="605" width="120" height="60" as="geometry" />
        </mxCell>
        <mxCell id="EGZGGG_lSdTqczfZfF0I-51" style="edgeStyle=orthogonalEdgeStyle;rounded=0;orthogonalLoop=1;jettySize=auto;html=1;exitX=0.5;exitY=1;exitDx=0;exitDy=0;fontSize=16;sketch=1;curveFitting=1;jiggle=2;" parent="1" source="EGZGGG_lSdTqczfZfF0I-52" target="EGZGGG_lSdTqczfZfF0I-70" edge="1">
          <mxGeometry relative="1" as="geometry" />
        </mxCell>
        <mxCell id="EGZGGG_lSdTqczfZfF0I-52" value="&lt;font style=&quot;font-size: 16px;&quot;&gt;&lt;b style=&quot;font-size: 13px;&quot;&gt;&lt;font style=&quot;font-size: 13px;&quot; face=&quot;Comic Sans MS&quot;&gt;ConvBNSiLU&lt;br&gt;(128, 128, (3,2))&lt;/font&gt;&lt;/b&gt;&lt;br&gt;&lt;/font&gt;" style="rounded=1;whiteSpace=wrap;html=1;fillColor=#dae8fc;strokeColor=#6c8ebf;strokeWidth=2;sketch=1;curveFitting=1;jiggle=2;shadow=0;" parent="1" vertex="1">
          <mxGeometry x="390" y="680" width="120" height="60" as="geometry" />
        </mxCell>
        <mxCell id="EGZGGG_lSdTqczfZfF0I-53" value="" style="endArrow=classic;html=1;rounded=0;fontSize=16;entryX=1;entryY=0.75;entryDx=0;entryDy=0;sketch=1;curveFitting=1;jiggle=2;" parent="1" target="EGZGGG_lSdTqczfZfF0I-61" edge="1">
          <mxGeometry width="50" height="50" relative="1" as="geometry">
            <mxPoint x="270" y="750" as="sourcePoint" />
            <mxPoint x="390" y="820" as="targetPoint" />
            <Array as="points">
              <mxPoint x="360" y="750" />
              <mxPoint x="360" y="790" />
            </Array>
          </mxGeometry>
        </mxCell>
        <mxCell id="EGZGGG_lSdTqczfZfF0I-54" style="edgeStyle=orthogonalEdgeStyle;rounded=0;orthogonalLoop=1;jettySize=auto;html=1;exitX=0.5;exitY=1;exitDx=0;exitDy=0;fontSize=16;sketch=1;curveFitting=1;jiggle=2;" parent="1" source="EGZGGG_lSdTqczfZfF0I-56" target="EGZGGG_lSdTqczfZfF0I-58" edge="1">
          <mxGeometry relative="1" as="geometry" />
        </mxCell>
        <mxCell id="EGZGGG_lSdTqczfZfF0I-55" style="edgeStyle=orthogonalEdgeStyle;rounded=0;orthogonalLoop=1;jettySize=auto;html=1;exitX=1;exitY=0.5;exitDx=0;exitDy=0;fontSize=16;sketch=1;curveFitting=1;jiggle=2;" parent="1" source="EGZGGG_lSdTqczfZfF0I-56" edge="1">
          <mxGeometry relative="1" as="geometry">
            <mxPoint x="600" y="869" as="targetPoint" />
          </mxGeometry>
        </mxCell>
        <mxCell id="EGZGGG_lSdTqczfZfF0I-56" value="&lt;font face=&quot;Comic Sans MS&quot; style=&quot;font-size: 16px;&quot;&gt;&lt;b style=&quot;&quot;&gt;C3&lt;br&gt;(256, 256)&lt;/b&gt;&lt;/font&gt;" style="rounded=1;whiteSpace=wrap;html=1;fontFamily=Courier New;fontSize=16;fillColor=#ffe6cc;strokeColor=#d79b00;strokeWidth=2;glass=0;shadow=0;sketch=1;curveFitting=1;jiggle=2;" parent="1" vertex="1">
          <mxGeometry x="390" y="840" width="120" height="60" as="geometry" />
        </mxCell>
        <mxCell id="EGZGGG_lSdTqczfZfF0I-57" style="edgeStyle=orthogonalEdgeStyle;rounded=0;orthogonalLoop=1;jettySize=auto;html=1;exitX=0.5;exitY=1;exitDx=0;exitDy=0;entryX=0.5;entryY=0;entryDx=0;entryDy=0;fontSize=16;sketch=1;curveFitting=1;jiggle=2;" parent="1" source="EGZGGG_lSdTqczfZfF0I-58" target="EGZGGG_lSdTqczfZfF0I-60" edge="1">
          <mxGeometry relative="1" as="geometry" />
        </mxCell>
        <mxCell id="EGZGGG_lSdTqczfZfF0I-58" value="&lt;font style=&quot;font-size: 16px;&quot;&gt;&lt;b style=&quot;font-size: 13px;&quot;&gt;&lt;font style=&quot;font-size: 13px;&quot; face=&quot;Comic Sans MS&quot;&gt;ConvBNSiLU&lt;br&gt;(256, 256, (3,2))&lt;/font&gt;&lt;/b&gt;&lt;br&gt;&lt;/font&gt;" style="rounded=1;whiteSpace=wrap;html=1;fillColor=#dae8fc;strokeColor=#6c8ebf;strokeWidth=2;sketch=1;curveFitting=1;jiggle=2;shadow=0;" parent="1" vertex="1">
          <mxGeometry x="390" y="920" width="120" height="60" as="geometry" />
        </mxCell>
        <mxCell id="EGZGGG_lSdTqczfZfF0I-59" style="edgeStyle=orthogonalEdgeStyle;rounded=0;orthogonalLoop=1;jettySize=auto;html=1;exitX=0.5;exitY=1;exitDx=0;exitDy=0;entryX=0.5;entryY=0;entryDx=0;entryDy=0;fontSize=16;sketch=1;curveFitting=1;jiggle=2;" parent="1" source="EGZGGG_lSdTqczfZfF0I-60" target="EGZGGG_lSdTqczfZfF0I-72" edge="1">
          <mxGeometry relative="1" as="geometry" />
        </mxCell>
        <mxCell id="EGZGGG_lSdTqczfZfF0I-60" value="&lt;font style=&quot;&quot; face=&quot;Comic Sans MS&quot;&gt;concat&lt;/font&gt;" style="ellipse;whiteSpace=wrap;html=1;aspect=fixed;fontSize=16;sketch=1;curveFitting=1;jiggle=2;" parent="1" vertex="1">
          <mxGeometry x="425" y="1000" width="50" height="50" as="geometry" />
        </mxCell>
        <mxCell id="EGZGGG_lSdTqczfZfF0I-61" value="&lt;span style=&quot;font-weight: normal;&quot;&gt;&lt;font style=&quot;font-size: 20px;&quot; face=&quot;Courier New&quot;&gt;P4&lt;/font&gt;&lt;/span&gt;" style="text;strokeColor=none;fillColor=none;html=1;fontSize=24;fontStyle=1;verticalAlign=middle;align=center;sketch=1;curveFitting=1;jiggle=2;" parent="1" vertex="1">
          <mxGeometry x="325" y="760" width="100" height="40" as="geometry" />
        </mxCell>
        <mxCell id="EGZGGG_lSdTqczfZfF0I-62" value="&lt;span style=&quot;font-weight: normal;&quot;&gt;&lt;font style=&quot;font-size: 20px;&quot; face=&quot;Courier New&quot;&gt;P2&lt;/font&gt;&lt;/span&gt;" style="text;strokeColor=none;fillColor=none;html=1;fontSize=24;fontStyle=1;verticalAlign=middle;align=center;sketch=1;curveFitting=1;jiggle=2;" parent="1" vertex="1">
          <mxGeometry x="145" y="475" width="100" height="30" as="geometry" />
        </mxCell>
        <mxCell id="EGZGGG_lSdTqczfZfF0I-63" value="&lt;span style=&quot;font-weight: normal;&quot;&gt;&lt;font style=&quot;font-size: 20px;&quot; face=&quot;Courier New&quot;&gt;P1&lt;/font&gt;&lt;/span&gt;" style="text;strokeColor=none;fillColor=none;html=1;fontSize=24;fontStyle=1;verticalAlign=middle;align=center;sketch=1;curveFitting=1;jiggle=2;" parent="1" vertex="1">
          <mxGeometry x="175" y="320" width="40" height="20" as="geometry" />
        </mxCell>
        <mxCell id="EGZGGG_lSdTqczfZfF0I-64" value="&lt;span style=&quot;font-weight: normal;&quot;&gt;&lt;font style=&quot;font-size: 20px;&quot; face=&quot;Courier New&quot;&gt;P0&lt;/font&gt;&lt;/span&gt;" style="text;strokeColor=none;fillColor=none;html=1;fontSize=24;fontStyle=1;verticalAlign=middle;align=center;sketch=1;curveFitting=1;jiggle=2;" parent="1" vertex="1">
          <mxGeometry x="175" y="240" width="40" height="20" as="geometry" />
        </mxCell>
        <mxCell id="EGZGGG_lSdTqczfZfF0I-65" value="&lt;span style=&quot;font-weight: normal;&quot;&gt;&lt;font style=&quot;font-size: 20px;&quot; face=&quot;Courier New&quot;&gt;P5&lt;/font&gt;&lt;/span&gt;" style="text;strokeColor=none;fillColor=none;html=1;fontSize=24;fontStyle=1;verticalAlign=middle;align=center;sketch=1;curveFitting=1;jiggle=2;" parent="1" vertex="1">
          <mxGeometry x="320" y="1040" width="30" height="40" as="geometry" />
        </mxCell>
        <UserObject label="&lt;font face=&quot;Courier New&quot;&gt;6&lt;/font&gt;" placeholders="1" name="Variable" id="EGZGGG_lSdTqczfZfF0I-66">
          <mxCell style="text;html=1;strokeColor=none;fillColor=none;align=center;verticalAlign=middle;whiteSpace=wrap;overflow=hidden;fontSize=16;sketch=1;curveFitting=1;jiggle=2;" parent="1" vertex="1">
            <mxGeometry x="30" y="780" width="20" height="20" as="geometry" />
          </mxCell>
        </UserObject>
        <UserObject label="&lt;font face=&quot;Courier New&quot;&gt;4&lt;/font&gt;" placeholders="1" name="Variable" id="EGZGGG_lSdTqczfZfF0I-67">
          <mxCell style="text;html=1;strokeColor=none;fillColor=none;align=center;verticalAlign=middle;whiteSpace=wrap;overflow=hidden;fontSize=16;sketch=1;curveFitting=1;jiggle=2;" parent="1" vertex="1">
            <mxGeometry x="30" y="580" width="20" height="20" as="geometry" />
          </mxCell>
        </UserObject>
        <UserObject label="&lt;font face=&quot;Courier New&quot;&gt;17&lt;/font&gt;" placeholders="1" name="Variable" id="EGZGGG_lSdTqczfZfF0I-68">
          <mxCell style="text;html=1;strokeColor=none;fillColor=none;align=center;verticalAlign=middle;whiteSpace=wrap;overflow=hidden;fontSize=16;sketch=1;curveFitting=1;jiggle=2;" parent="1" vertex="1">
            <mxGeometry x="390" y="605" width="20" height="20" as="geometry" />
          </mxCell>
        </UserObject>
        <mxCell id="EGZGGG_lSdTqczfZfF0I-69" value="" style="edgeStyle=orthogonalEdgeStyle;rounded=0;orthogonalLoop=1;jettySize=auto;html=1;fontSize=16;sketch=1;curveFitting=1;jiggle=2;" parent="1" source="EGZGGG_lSdTqczfZfF0I-70" target="EGZGGG_lSdTqczfZfF0I-56" edge="1">
          <mxGeometry relative="1" as="geometry" />
        </mxCell>
        <mxCell id="EGZGGG_lSdTqczfZfF0I-70" value="&lt;font face=&quot;Comic Sans MS&quot;&gt;concat&lt;/font&gt;" style="ellipse;whiteSpace=wrap;html=1;aspect=fixed;fontSize=16;sketch=1;curveFitting=1;jiggle=2;" parent="1" vertex="1">
          <mxGeometry x="425" y="765" width="50" height="50" as="geometry" />
        </mxCell>
        <mxCell id="EGZGGG_lSdTqczfZfF0I-71" style="edgeStyle=orthogonalEdgeStyle;rounded=0;orthogonalLoop=1;jettySize=auto;html=1;exitX=1;exitY=0.5;exitDx=0;exitDy=0;fontSize=16;sketch=1;curveFitting=1;jiggle=2;" parent="1" source="EGZGGG_lSdTqczfZfF0I-72" edge="1">
          <mxGeometry relative="1" as="geometry">
            <mxPoint x="600" y="1111" as="targetPoint" />
          </mxGeometry>
        </mxCell>
        <mxCell id="EGZGGG_lSdTqczfZfF0I-72" value="&lt;font face=&quot;Comic Sans MS&quot; style=&quot;font-size: 16px;&quot;&gt;&lt;b style=&quot;&quot;&gt;C3&lt;br&gt;(512, 512)&lt;/b&gt;&lt;/font&gt;" style="rounded=1;whiteSpace=wrap;html=1;fontFamily=Courier New;fontSize=16;fillColor=#ffe6cc;strokeColor=#d79b00;strokeWidth=2;glass=0;shadow=0;sketch=1;curveFitting=1;jiggle=2;" parent="1" vertex="1">
          <mxGeometry x="390" y="1080" width="120" height="60" as="geometry" />
        </mxCell>
        <mxCell id="EGZGGG_lSdTqczfZfF0I-73" value="&lt;span style=&quot;font-weight: normal;&quot;&gt;&lt;font style=&quot;font-size: 20px;&quot; face=&quot;Courier New&quot;&gt;P5&lt;/font&gt;&lt;/span&gt;" style="text;strokeColor=none;fillColor=none;html=1;fontSize=24;fontStyle=1;verticalAlign=middle;align=center;sketch=1;curveFitting=1;jiggle=2;" parent="1" vertex="1">
          <mxGeometry x="165" y="1110" width="30" height="40" as="geometry" />
        </mxCell>
        <UserObject label="&lt;font face=&quot;Courier New&quot;&gt;20&lt;/font&gt;" placeholders="1" name="Variable" id="EGZGGG_lSdTqczfZfF0I-74">
          <mxCell style="text;html=1;strokeColor=none;fillColor=none;align=center;verticalAlign=middle;whiteSpace=wrap;overflow=hidden;fontSize=16;sketch=1;curveFitting=1;jiggle=2;" parent="1" vertex="1">
            <mxGeometry x="390" y="840" width="20" height="20" as="geometry" />
          </mxCell>
        </UserObject>
        <UserObject label="&lt;font face=&quot;Courier New&quot;&gt;23&lt;/font&gt;" placeholders="1" name="Variable" id="EGZGGG_lSdTqczfZfF0I-75">
          <mxCell style="text;html=1;strokeColor=none;fillColor=none;align=center;verticalAlign=middle;whiteSpace=wrap;overflow=hidden;fontSize=16;sketch=1;curveFitting=1;jiggle=2;" parent="1" vertex="1">
            <mxGeometry x="390" y="1080" width="20" height="20" as="geometry" />
          </mxCell>
        </UserObject>
        <mxCell id="EGZGGG_lSdTqczfZfF0I-76" value="" style="group;sketch=1;curveFitting=1;jiggle=2;" parent="1" vertex="1" connectable="0">
          <mxGeometry x="30" y="120" width="120" height="120" as="geometry" />
        </mxCell>
        <mxCell id="EGZGGG_lSdTqczfZfF0I-77" value="" style="whiteSpace=wrap;html=1;aspect=fixed;fillColor=#f8cecc;strokeColor=#b85450;sketch=1;curveFitting=1;jiggle=2;" parent="EGZGGG_lSdTqczfZfF0I-76" vertex="1">
          <mxGeometry y="40" width="80" height="80" as="geometry" />
        </mxCell>
        <mxCell id="EGZGGG_lSdTqczfZfF0I-78" value="" style="whiteSpace=wrap;html=1;aspect=fixed;fillColor=#d5e8d4;strokeColor=#82b366;sketch=1;curveFitting=1;jiggle=2;" parent="EGZGGG_lSdTqczfZfF0I-76" vertex="1">
          <mxGeometry x="20" y="20" width="80" height="80" as="geometry" />
        </mxCell>
        <mxCell id="EGZGGG_lSdTqczfZfF0I-79" value="" style="whiteSpace=wrap;html=1;aspect=fixed;fillColor=#dae8fc;strokeColor=#6c8ebf;sketch=1;curveFitting=1;jiggle=2;" parent="EGZGGG_lSdTqczfZfF0I-76" vertex="1">
          <mxGeometry x="40" width="80" height="80" as="geometry" />
        </mxCell>
        <mxCell id="EGZGGG_lSdTqczfZfF0I-80" value="" style="group;sketch=1;curveFitting=1;jiggle=2;" parent="1" vertex="1" connectable="0">
          <mxGeometry x="586" y="583" width="110" height="110" as="geometry" />
        </mxCell>
        <mxCell id="EGZGGG_lSdTqczfZfF0I-81" value="" style="whiteSpace=wrap;html=1;aspect=fixed;fillColor=#f5f5f5;strokeColor=#666666;sketch=1;curveFitting=1;jiggle=2;fontColor=#333333;" parent="EGZGGG_lSdTqczfZfF0I-80" vertex="1">
          <mxGeometry y="36.666666666666664" width="63.76811594202898" height="63.76811594202898" as="geometry" />
        </mxCell>
        <mxCell id="EGZGGG_lSdTqczfZfF0I-82" value="" style="whiteSpace=wrap;html=1;aspect=fixed;fillColor=#f5f5f5;strokeColor=#666666;sketch=1;curveFitting=1;jiggle=2;fontColor=#333333;" parent="EGZGGG_lSdTqczfZfF0I-80" vertex="1">
          <mxGeometry x="18.333333333333332" y="18.333333333333332" width="63.76811594202898" height="63.76811594202898" as="geometry" />
        </mxCell>
        <mxCell id="EGZGGG_lSdTqczfZfF0I-83" value="" style="whiteSpace=wrap;html=1;aspect=fixed;fillColor=#f5f5f5;strokeColor=#666666;sketch=1;curveFitting=1;jiggle=2;fontColor=#333333;" parent="EGZGGG_lSdTqczfZfF0I-80" vertex="1">
          <mxGeometry x="36.666666666666664" width="63.76811594202898" height="63.76811594202898" as="geometry" />
        </mxCell>
        <mxCell id="EGZGGG_lSdTqczfZfF0I-84" value="" style="group;sketch=1;curveFitting=1;jiggle=2;" parent="1" vertex="1" connectable="0">
          <mxGeometry x="596" y="827.5" width="90" height="95" as="geometry" />
        </mxCell>
        <mxCell id="EGZGGG_lSdTqczfZfF0I-85" value="" style="whiteSpace=wrap;html=1;aspect=fixed;fillColor=#f5f5f5;strokeColor=#666666;sketch=1;curveFitting=1;jiggle=2;fontColor=#333333;direction=south;" parent="EGZGGG_lSdTqczfZfF0I-84" vertex="1">
          <mxGeometry y="31.666666666666664" width="52.17391304347826" height="52.17391304347826" as="geometry" />
        </mxCell>
        <mxCell id="EGZGGG_lSdTqczfZfF0I-86" value="" style="whiteSpace=wrap;html=1;aspect=fixed;fillColor=#f5f5f5;strokeColor=#666666;sketch=1;curveFitting=1;jiggle=2;fontColor=#333333;" parent="EGZGGG_lSdTqczfZfF0I-84" vertex="1">
          <mxGeometry x="15" y="15.833333333333332" width="52.17391304347826" height="52.17391304347826" as="geometry" />
        </mxCell>
        <mxCell id="EGZGGG_lSdTqczfZfF0I-87" value="" style="whiteSpace=wrap;html=1;aspect=fixed;fillColor=#f5f5f5;strokeColor=#666666;sketch=1;curveFitting=1;jiggle=2;fontColor=#333333;" parent="EGZGGG_lSdTqczfZfF0I-84" vertex="1">
          <mxGeometry x="30" width="52.17391304347826" height="52.17391304347826" as="geometry" />
        </mxCell>
        <mxCell id="EGZGGG_lSdTqczfZfF0I-88" value="" style="group;sketch=1;curveFitting=1;jiggle=2;" parent="1" vertex="1" connectable="0">
          <mxGeometry x="603" y="1080" width="70" height="80" as="geometry" />
        </mxCell>
        <mxCell id="EGZGGG_lSdTqczfZfF0I-89" value="" style="whiteSpace=wrap;html=1;aspect=fixed;fillColor=#f5f5f5;strokeColor=#666666;sketch=1;curveFitting=1;jiggle=2;fontColor=#333333;" parent="EGZGGG_lSdTqczfZfF0I-88" vertex="1">
          <mxGeometry y="26.666666666666664" width="40.57971014492753" height="40.57971014492753" as="geometry" />
        </mxCell>
        <mxCell id="EGZGGG_lSdTqczfZfF0I-90" value="" style="whiteSpace=wrap;html=1;aspect=fixed;fillColor=#f5f5f5;strokeColor=#666666;sketch=1;curveFitting=1;jiggle=2;fontColor=#333333;" parent="EGZGGG_lSdTqczfZfF0I-88" vertex="1">
          <mxGeometry x="11.666666666666666" y="13.333333333333332" width="40.57971014492753" height="40.57971014492753" as="geometry" />
        </mxCell>
        <mxCell id="EGZGGG_lSdTqczfZfF0I-91" value="" style="whiteSpace=wrap;html=1;aspect=fixed;fillColor=#f5f5f5;strokeColor=#666666;sketch=1;curveFitting=1;jiggle=2;fontColor=#333333;" parent="EGZGGG_lSdTqczfZfF0I-88" vertex="1">
          <mxGeometry x="23.333333333333332" width="40.57971014492753" height="40.57971014492753" as="geometry" />
        </mxCell>
        <mxCell id="EGZGGG_lSdTqczfZfF0I-92" value="&lt;span style=&quot;font-size: 18px;&quot;&gt;&lt;font face=&quot;Comic Sans MS&quot;&gt;feature map&lt;br&gt;128*80*80&lt;/font&gt;&lt;/span&gt;" style="text;strokeColor=none;fillColor=none;html=1;fontSize=24;fontStyle=1;verticalAlign=middle;align=center;sketch=1;curveFitting=1;jiggle=2;" parent="1" vertex="1">
          <mxGeometry x="566" y="523" width="100" height="60" as="geometry" />
        </mxCell>
        <mxCell id="EGZGGG_lSdTqczfZfF0I-93" value="&lt;span style=&quot;font-size: 18px;&quot;&gt;&lt;font style=&quot;&quot; face=&quot;Comic Sans MS&quot;&gt;feature map&lt;br&gt;256*40*40&lt;/font&gt;&lt;/span&gt;" style="text;strokeColor=none;fillColor=none;html=1;fontSize=24;fontStyle=1;verticalAlign=middle;align=center;sketch=1;curveFitting=1;jiggle=2;" parent="1" vertex="1">
          <mxGeometry x="566" y="760" width="100" height="60" as="geometry" />
        </mxCell>
        <mxCell id="EGZGGG_lSdTqczfZfF0I-94" value="&lt;span style=&quot;font-size: 18px;&quot;&gt;&lt;font style=&quot;&quot; face=&quot;Comic Sans MS&quot;&gt;feature map&lt;br&gt;512*20*20&lt;/font&gt;&lt;/span&gt;" style="text;strokeColor=none;fillColor=none;html=1;fontSize=24;fontStyle=1;verticalAlign=middle;align=center;sketch=1;curveFitting=1;jiggle=2;" parent="1" vertex="1">
          <mxGeometry x="566" y="1010" width="100" height="60" as="geometry" />
        </mxCell>
        <mxCell id="EGZGGG_lSdTqczfZfF0I-96" value="&lt;font style=&quot;font-size: 13px;&quot; face=&quot;Comic Sans MS&quot;&gt;yolo.detect&lt;/font&gt;" style="rounded=0;whiteSpace=wrap;html=1;sketch=1;curveFitting=1;jiggle=2;" parent="1" vertex="1">
          <mxGeometry x="730" y="618" width="77" height="25" as="geometry" />
        </mxCell>
        <mxCell id="EGZGGG_lSdTqczfZfF0I-97" value="" style="edgeStyle=orthogonalEdgeStyle;rounded=0;orthogonalLoop=1;jettySize=auto;html=1;exitX=1;exitY=0.75;exitDx=0;exitDy=0;sketch=1;curveFitting=1;jiggle=2;" parent="1" source="EGZGGG_lSdTqczfZfF0I-83" target="EGZGGG_lSdTqczfZfF0I-96" edge="1">
          <mxGeometry relative="1" as="geometry" />
        </mxCell>
        <mxCell id="EGZGGG_lSdTqczfZfF0I-98" value="&lt;font style=&quot;font-size: 13px;&quot; face=&quot;Comic Sans MS&quot;&gt;yolo.detect&lt;/font&gt;" style="rounded=0;whiteSpace=wrap;html=1;sketch=1;curveFitting=1;jiggle=2;" parent="1" vertex="1">
          <mxGeometry x="730" y="854.67" width="77" height="25" as="geometry" />
        </mxCell>
        <mxCell id="EGZGGG_lSdTqczfZfF0I-99" value="&lt;font style=&quot;font-size: 13px;&quot; face=&quot;Comic Sans MS&quot;&gt;yolo.detect&lt;/font&gt;" style="rounded=0;whiteSpace=wrap;html=1;sketch=1;curveFitting=1;jiggle=2;" parent="1" vertex="1">
          <mxGeometry x="730" y="1094.5" width="77" height="25" as="geometry" />
        </mxCell>
        <mxCell id="EGZGGG_lSdTqczfZfF0I-101" style="edgeStyle=orthogonalEdgeStyle;rounded=0;orthogonalLoop=1;jettySize=auto;html=1;exitX=1;exitY=0.75;exitDx=0;exitDy=0;entryX=0;entryY=0.5;entryDx=0;entryDy=0;sketch=1;curveFitting=1;jiggle=2;" parent="1" source="EGZGGG_lSdTqczfZfF0I-87" target="EGZGGG_lSdTqczfZfF0I-98" edge="1">
          <mxGeometry relative="1" as="geometry" />
        </mxCell>
        <mxCell id="EGZGGG_lSdTqczfZfF0I-103" style="edgeStyle=orthogonalEdgeStyle;rounded=0;orthogonalLoop=1;jettySize=auto;html=1;exitX=1;exitY=0.75;exitDx=0;exitDy=0;entryX=0;entryY=0.637;entryDx=0;entryDy=0;entryPerimeter=0;sketch=1;curveFitting=1;jiggle=2;" parent="1" source="EGZGGG_lSdTqczfZfF0I-91" target="EGZGGG_lSdTqczfZfF0I-99" edge="1">
          <mxGeometry relative="1" as="geometry" />
        </mxCell>
        <mxCell id="EGZGGG_lSdTqczfZfF0I-107" value="" style="rounded=1;whiteSpace=wrap;html=1;fillColor=none;strokeColor=default;sketch=1;curveFitting=1;jiggle=2;strokeWidth=2;" parent="1" vertex="1">
          <mxGeometry x="230" y="130" width="550" height="380" as="geometry" />
        </mxCell>
        <mxCell id="EGZGGG_lSdTqczfZfF0I-108" value="&lt;font style=&quot;font-size: 16px;&quot; face=&quot;Comic Sans MS&quot;&gt;&lt;b&gt;图&amp;nbsp; &amp;nbsp; &amp;nbsp; &amp;nbsp; &amp;nbsp; &amp;nbsp; 例&lt;/b&gt;&lt;/font&gt;" style="text;html=1;strokeColor=none;fillColor=none;align=center;verticalAlign=middle;whiteSpace=wrap;rounded=0;" parent="1" vertex="1">
          <mxGeometry x="435" y="150" width="140" height="20" as="geometry" />
        </mxCell>
        <mxCell id="EGZGGG_lSdTqczfZfF0I-109" value="&lt;font style=&quot;font-size: 16px;&quot;&gt;&lt;b style=&quot;border-color: var(--border-color); font-size: 13px;&quot;&gt;&lt;font style=&quot;border-color: var(--border-color);&quot; face=&quot;Comic Sans MS&quot;&gt;Type&lt;br style=&quot;border-color: var(--border-color);&quot;&gt;(Cin, Cout, (args))&lt;/font&gt;&lt;/b&gt;&lt;br&gt;&lt;/font&gt;" style="rounded=1;whiteSpace=wrap;html=1;fillColor=#dae8fc;strokeColor=#6c8ebf;strokeWidth=2;sketch=1;curveFitting=1;jiggle=2;shadow=0;" parent="1" vertex="1">
          <mxGeometry x="260" y="195" width="120" height="60" as="geometry" />
        </mxCell>
        <mxCell id="EGZGGG_lSdTqczfZfF0I-113" value="&lt;font style=&quot;font-size: 12px;&quot; face=&quot;Comic Sans MS&quot;&gt;&lt;span style=&quot;&quot;&gt;类名称&lt;br&gt;（输入通道数，输出通道数，（卷积核大小，stride,padding))&lt;br&gt;&lt;/span&gt;&lt;/font&gt;" style="text;html=1;strokeColor=none;fillColor=none;align=center;verticalAlign=middle;whiteSpace=wrap;rounded=0;" parent="1" vertex="1">
          <mxGeometry x="370" y="210" width="390" height="50" as="geometry" />
        </mxCell>
        <mxCell id="EGZGGG_lSdTqczfZfF0I-115" value="&lt;div style=&quot;text-align: left;&quot;&gt;&lt;font style=&quot;font-size: 12px;&quot; face=&quot;Comic Sans MS&quot;&gt;方框表示对特征图进行处理的类，以下参数可能缺省，但顺序不变&lt;/font&gt;&lt;/div&gt;" style="text;html=1;strokeColor=none;fillColor=none;align=center;verticalAlign=middle;whiteSpace=wrap;rounded=0;" parent="1" vertex="1">
          <mxGeometry x="365" y="180" width="390" height="50" as="geometry" />
        </mxCell>
        <mxCell id="EGZGGG_lSdTqczfZfF0I-120" value="" style="group;sketch=1;curveFitting=1;jiggle=2;" parent="1" vertex="1" connectable="0">
          <mxGeometry x="295" y="270" width="70" height="80" as="geometry" />
        </mxCell>
        <mxCell id="EGZGGG_lSdTqczfZfF0I-121" value="" style="whiteSpace=wrap;html=1;aspect=fixed;fillColor=#f5f5f5;strokeColor=#666666;sketch=1;curveFitting=1;jiggle=2;fontColor=#333333;" parent="EGZGGG_lSdTqczfZfF0I-120" vertex="1">
          <mxGeometry y="26.666666666666664" width="40.57971014492753" height="40.57971014492753" as="geometry" />
        </mxCell>
        <mxCell id="EGZGGG_lSdTqczfZfF0I-122" value="" style="whiteSpace=wrap;html=1;aspect=fixed;fillColor=#f5f5f5;strokeColor=#666666;sketch=1;curveFitting=1;jiggle=2;fontColor=#333333;" parent="EGZGGG_lSdTqczfZfF0I-120" vertex="1">
          <mxGeometry x="11.666666666666666" y="13.333333333333332" width="40.57971014492753" height="40.57971014492753" as="geometry" />
        </mxCell>
        <mxCell id="EGZGGG_lSdTqczfZfF0I-123" value="" style="whiteSpace=wrap;html=1;aspect=fixed;fillColor=#f5f5f5;strokeColor=#666666;sketch=1;curveFitting=1;jiggle=2;fontColor=#333333;" parent="EGZGGG_lSdTqczfZfF0I-120" vertex="1">
          <mxGeometry x="23.333333333333332" width="40.57971014492753" height="40.57971014492753" as="geometry" />
        </mxCell>
        <mxCell id="EGZGGG_lSdTqczfZfF0I-129" value="&lt;div style=&quot;&quot;&gt;&lt;font style=&quot;font-size: 12px;&quot; face=&quot;Comic Sans MS&quot;&gt;特征图，图像处理的中间变量，矩阵，形状表示为（通道数*长*宽）。储存类型为torch.Tenor。&lt;/font&gt;&lt;/div&gt;&lt;div style=&quot;&quot;&gt;&lt;font style=&quot;font-size: 12px;&quot; face=&quot;Comic Sans MS&quot;&gt;图中小字P1,P2,P3,P4,P5分别表示原图宽度1/2，1/4，1/8，1/16，1/32的特征图&lt;/font&gt;&lt;/div&gt;" style="text;html=1;strokeColor=none;fillColor=none;align=left;verticalAlign=middle;whiteSpace=wrap;rounded=0;" parent="1" vertex="1">
          <mxGeometry x="370" y="285" width="390" height="50" as="geometry" />
        </mxCell>
        <mxCell id="EGZGGG_lSdTqczfZfF0I-131" value="&lt;font style=&quot;&quot; face=&quot;Comic Sans MS&quot;&gt;concat&lt;/font&gt;" style="ellipse;whiteSpace=wrap;html=1;aspect=fixed;fontSize=16;sketch=1;curveFitting=1;jiggle=2;" parent="1" vertex="1">
          <mxGeometry x="300" y="360" width="50" height="50" as="geometry" />
        </mxCell>
        <mxCell id="EGZGGG_lSdTqczfZfF0I-132" value="&lt;div style=&quot;&quot;&gt;&lt;font face=&quot;Comic Sans MS&quot;&gt;将输入的几个特征图按照通道维度进行拼接&lt;/font&gt;&lt;/div&gt;" style="text;html=1;strokeColor=none;fillColor=none;align=left;verticalAlign=middle;whiteSpace=wrap;rounded=0;" parent="1" vertex="1">
          <mxGeometry x="370" y="360" width="390" height="50" as="geometry" />
        </mxCell>
        <mxCell id="EGZGGG_lSdTqczfZfF0I-133" value="&lt;font style=&quot;font-size: 13px;&quot; face=&quot;Comic Sans MS&quot;&gt;yolo.detect&lt;/font&gt;" style="rounded=0;whiteSpace=wrap;html=1;sketch=1;curveFitting=1;jiggle=2;" parent="1" vertex="1">
          <mxGeometry x="288" y="437.5" width="77" height="25" as="geometry" />
        </mxCell>
        <mxCell id="EGZGGG_lSdTqczfZfF0I-134" value="&lt;div style=&quot;&quot;&gt;&lt;font face=&quot;Comic Sans MS&quot;&gt;yolo的回归模型，将网络提取出的特征计算成目标的种类和边界框位置&lt;/font&gt;&lt;/div&gt;" style="text;html=1;strokeColor=none;fillColor=none;align=left;verticalAlign=middle;whiteSpace=wrap;rounded=0;" parent="1" vertex="1">
          <mxGeometry x="380" y="425" width="390" height="50" as="geometry" />
        </mxCell>
      </root>
    </mxGraphModel>
  </diagram>
</mxfile>
